<svg fill="#f1c40f" height="20" width="20" xmlns="http://www.w3.org/2000/svg" viewBox="0 0 128 128"><circle transform="rotate(-45.001 48.387 32.11)" cx="48.4" cy="32.1" r="9.8"/><circle transform="rotate(-45.001 79.613 32.111)" cx="79.6" cy="32.1" r="9.8"/><path d="M122.2 60.2l-21.5-21.5c-2.9-2.8-7.6-2.8-10.4 0l-3.4 3.4c-.7.7-1.2 1.6-1.6 2.4l-6.1 16.7-15.2 7-15.2-7-6.1-16.7c-.4-.9-.9-1.7-1.6-2.4l-3.4-3.4c-2.8-2.8-7.4-2.8-10.4 0L5.8 60.2c-1.5 1.5-2.2 3.3-2.2 5.3v50.7c0 3.4 2.7 6.1 6.1 6.1 3.4 0 6.1-2.7 6.1-6.1V76c1.3-.2 2.7-1 3.8-2l18.2-18.2 3.7 10c.4 1.1 1.2 2 2.2 2.4l17.7 8.3c.9.4 1.8.5 2.6.3.9.2 1.8.1 2.6-.3l17.7-8.3c1-.5 1.8-1.3 2.2-2.4l3.7-10L108.4 74c1.1 1 2.4 1.7 3.8 2v40.1c0 3.4 2.7 6.1 6.1 6.1 3.4 0 6.1-2.7 6.1-6.1V65.4c0-1.9-.7-3.8-2.2-5.2z"/></svg>